<?xml version="1.0" encoding="UTF-8"?>
<svg width="30px" height="30px" viewBox="0 0 30 30" version="1.1" xmlns="http://www.w3.org/2000/svg" xmlns:xlink="http://www.w3.org/1999/xlink">
    <!-- Generator: Sketch 52.4 (67378) - http://www.bohemiancoding.com/sketch -->
    <title>List View</title>
    <desc>Created with Sketch.</desc>
    <g id="Desktop" stroke="none" stroke-width="1" fill="none" fill-rule="evenodd">
        <g id="NHB_Research-page_Collection" transform="translate(-1250.000000, -281.000000)" fill="#231F20">
            <g id="List-View" transform="translate(1250.000000, 281.000000)">
                <path d="M0,8.38415493 L8.38415493,8.38415493 L8.38415493,0 L0,0 L0,8.38415493 Z M1.69014085,6.69380282 L6.69401408,6.69380282 L6.69401408,1.69014085 L1.69014085,1.69014085 L1.69014085,6.69380282 Z" id="Fill-1"></path>
                <path d="M0,29.9433803 L8.38415493,29.9433803 L8.38415493,21.5592254 L0,21.5592254 L0,29.9433803 Z M1.69014085,28.2532394 L6.69401408,28.2532394 L6.69401408,23.2493662 L1.69014085,23.2493662 L1.69014085,28.2532394 Z" id="Fill-2"></path>
                <path d="M0,19.163662 L8.38415493,19.163662 L8.38415493,10.779507 L0,10.779507 L0,19.163662 Z M1.69014085,17.4735211 L6.69401408,17.4735211 L6.69401408,12.4698592 L1.69014085,12.4698592 L1.69014085,17.4735211 Z" id="Fill-3"></path>
                <polygon id="Fill-4" points="10.7797183 1.69014085 29.9433803 1.69014085 29.9433803 0 10.7797183 0"></polygon>
                <polygon id="Fill-5" points="10.7797183 5.07021127 29.9433803 5.07021127 29.9433803 3.38007042 10.7797183 3.38007042"></polygon>
                <polygon id="Fill-6" points="10.7797183 12.4698592 29.9433803 12.4698592 29.9433803 10.7797183 10.7797183 10.7797183"></polygon>
                <polygon id="Fill-7" points="10.7797183 15.8499296 29.9433803 15.8499296 29.9433803 14.1597887 10.7797183 14.1597887"></polygon>
                <polygon id="Fill-8" points="10.7797183 23.2493662 29.9433803 23.2493662 29.9433803 21.5594366 10.7797183 21.5594366"></polygon>
                <polygon id="Fill-9" points="10.7797183 26.6296479 29.9433803 26.6296479 29.9433803 24.939507 10.7797183 24.939507"></polygon>
            </g>
        </g>
    </g>
</svg>