<?xml version="1.0" encoding="UTF-8"?>
<svg width="30px" height="30px" viewBox="0 0 30 30" version="1.1" xmlns="http://www.w3.org/2000/svg" xmlns:xlink="http://www.w3.org/1999/xlink">
    <!-- Generator: Sketch 52.4 (67378) - http://www.bohemiancoding.com/sketch -->
    <title>Grid view</title>
    <desc>Created with Sketch.</desc>
    <g id="Desktop" stroke="none" stroke-width="1" fill="none" fill-rule="evenodd">
        <g id="NHB_Research-page_Collection" transform="translate(-1190.000000, -281.000000)" fill="#231F20">
            <g id="Grid-view" transform="translate(1190.000000, 281.000000)">
                <path d="M0,5.98859155 L8.3843662,5.98859155 L8.3843662,0 L0,0 L0,5.98859155 Z M1.69014085,4.2984507 L6.69401408,4.2984507 L6.69401408,1.69014085 L1.69014085,1.69014085 L1.69014085,4.2984507 Z" id="Fill-1"></path>
                <path d="M10.7797183,12.5761268 L19.1638732,12.5761268 L19.1638732,0 L10.7797183,0 L10.7797183,12.5761268 Z M12.4698592,10.8861972 L17.4737324,10.8861972 L17.4737324,1.69014085 L12.4698592,1.69014085 L12.4698592,10.8861972 Z" id="Fill-2"></path>
                <path d="M21.5592254,29.9433803 L29.9433803,29.9433803 L29.9433803,17.3670423 L21.5592254,17.3670423 L21.5592254,29.9433803 Z M23.2495775,28.2532394 L28.2532394,28.2532394 L28.2532394,19.0571831 L23.2495775,19.0571831 L23.2495775,28.2532394 Z" id="Fill-3"></path>
                <path d="M0,21.1100704 L8.3843662,21.1100704 L8.3843662,8.53394366 L0,8.53394366 L0,21.1100704 Z M1.69014085,19.4199296 L6.69401408,19.4199296 L6.69401408,10.2238732 L1.69014085,10.2238732 L1.69014085,19.4199296 Z" id="Fill-4"></path>
                <path d="M21.5592254,5.98859155 L29.9433803,5.98859155 L29.9433803,0 L21.5592254,0 L21.5592254,5.98859155 Z M23.2495775,4.2984507 L28.2532394,4.2984507 L28.2532394,1.69014085 L23.2495775,1.69014085 L23.2495775,4.2984507 Z" id="Fill-5"></path>
                <path d="M21.5592254,14.6721127 L29.9433803,14.6721127 L29.9433803,8.68352113 L21.5592254,8.68352113 L21.5592254,14.6721127 Z M23.2495775,12.9819718 L28.2532394,12.9819718 L28.2532394,10.373662 L23.2495775,10.373662 L23.2495775,12.9819718 Z" id="Fill-6"></path>
                <path d="M10.7797183,29.9433803 L19.1638732,29.9433803 L19.1638732,23.6552113 L10.7797183,23.6552113 L10.7797183,29.9433803 Z M12.4698592,28.2532394 L17.4737324,28.2532394 L17.4737324,25.3453521 L12.4698592,25.3453521 L12.4698592,28.2532394 Z" id="Fill-7"></path>
                <path d="M0,29.9433803 L8.3843662,29.9433803 L8.3843662,23.6552113 L0,23.6552113 L0,29.9433803 Z M1.69014085,28.2532394 L6.69401408,28.2532394 L6.69401408,25.3453521 L1.69014085,25.3453521 L1.69014085,28.2532394 Z" id="Fill-8"></path>
                <path d="M10.7797183,21.2598592 L19.1638732,21.2598592 L19.1638732,14.9716901 L10.7797183,14.9716901 L10.7797183,21.2598592 Z M12.4698592,19.5697183 L17.4737324,19.5697183 L17.4737324,16.661831 L12.4698592,16.661831 L12.4698592,19.5697183 Z" id="Fill-9"></path>
            </g>
        </g>
    </g>
</svg>