<?xml version="1.0" encoding="UTF-8"?>
<svg width="139px" height="30px" viewBox="0 0 139 30" version="1.1" xmlns="http://www.w3.org/2000/svg" xmlns:xlink="http://www.w3.org/1999/xlink">
    <!-- Generator: Sketch 52.4 (67378) - http://www.bohemiancoding.com/sketch -->
    <title>roots</title>
    <desc>roots logo</desc>
    <g id="roots" stroke="none" stroke-width="1" fill="#231F20" fill-rule="evenodd">
      <path d="M9.88011111,16.1756667 L11.6001111,16.1756667 C13.1201111,16.1756667 14.3401111,15.7023333 15.2601111,14.7551111 C16.1801111,13.809 16.6401111,12.4151111 16.6401111,10.5756667 C16.6401111,8.389 16.0062222,6.64233333 14.7401111,5.33511111 C13.4734444,4.02955556 12.0134444,3.37566667 10.3601111,3.37566667 L9.00011111,3.37566667 C8.09288889,3.37566667 7.64011111,3.97566667 7.64011111,5.17566667 L7.64011111,13.4956667 C7.64011111,14.4551111 7.82011111,15.1423333 8.18011111,15.5556667 C8.54011111,15.9695556 9.10622222,16.1756667 9.88011111,16.1756667 Z M22.6401111,25.4951111 C22.9862222,26.029 23.4067778,26.489 23.9001111,26.8756667 C24.3934444,27.2623333 24.7862222,27.5695556 25.0801111,27.7956667 C25.3734444,28.0223333 25.5201111,28.2695556 25.5201111,28.5356667 L25.5201111,28.6556667 C25.5201111,29.109 25.2134444,29.3351111 24.6001111,29.3351111 L16.2401111,29.3351111 C15.6534444,29.3351111 15.3601111,29.109 15.3601111,28.6556667 L15.3601111,28.5356667 C15.3601111,28.2951111 15.5134444,28.0223333 15.8201111,27.7151111 C16.1262222,27.4095556 16.3401111,27.1295556 16.4601111,26.8756667 C16.5801111,26.6223333 16.5067778,26.1628889 16.2401111,25.4951111 L12.0401111,18.5356667 L7.64011111,18.6156667 L7.64011111,25.4951111 C7.64011111,26.1095556 7.92622222,26.7023333 8.50011111,27.2751111 C9.07344444,27.8495556 9.36011111,28.2695556 9.36011111,28.5356667 L9.36011111,28.6556667 C9.36011111,29.109 9.04011111,29.3351111 8.40011111,29.3351111 L0.880111111,29.3351111 C0.292888889,29.3351111 0.000111111111,29.109 0.000111111111,28.6556667 L0.000111111111,28.5356667 C0.000111111111,28.2695556 0.253444444,27.8495556 0.760111111,27.2751111 C1.26622222,26.7023333 1.52011111,26.1095556 1.52011111,25.4951111 L1.52011111,4.77511111 C1.52011111,4.16233333 1.26622222,3.56955556 0.760111111,2.99511111 C0.253444444,2.42233333 0.000111111111,2.00233333 0.000111111111,1.73566667 L0.000111111111,1.57566667 C0.000111111111,1.149 0.292888889,0.935111111 0.880111111,0.935111111 L10.7601111,0.935111111 C14.4662222,0.935111111 17.4062222,1.69566667 19.5801111,3.21566667 C21.7534444,4.73566667 22.8534444,6.96233333 22.8801111,9.89511111 C22.8801111,11.5223333 22.4062222,13.0223333 21.4601111,14.3956667 C20.5134444,15.7695556 19.1601111,16.8295556 17.4001111,17.5756667 L22.6401111,25.4951111 Z" id="Fill-1"></path>
      <path d="M97.3286667,29.3353889 C96.7414444,29.3353889 96.4486667,29.1092778 96.4486667,28.6553889 L96.4486667,28.5359444 C96.4486667,28.2692778 96.7147778,27.8492778 97.2481111,27.2753889 C97.7808889,26.7026111 98.0481111,26.1092778 98.0481111,25.4953889 L98.0481111,3.53594444 L94.8486667,3.53594444 C94.2886667,3.53594444 93.7814444,3.77538889 93.3286667,4.25538889 C92.8747778,4.73594444 92.522,5.26927778 92.2686667,5.85538889 C92.0153333,6.44261111 91.7153333,6.97538889 91.3681111,7.45538889 C91.0214444,7.93538889 90.6747778,8.17538889 90.3286667,8.17538889 L89.7686667,8.17538889 C89.0753333,8.17538889 88.7953333,7.82927778 88.9286667,7.13538889 L89.6486667,2.05538889 C89.7547778,1.30927778 90.182,0.935388889 90.9281111,0.935388889 L111.208667,0.935388889 C111.954222,0.935388889 112.382,1.30927778 112.488111,2.05538889 L113.328111,7.17538889 C113.381444,7.49538889 113.334778,7.74261111 113.188111,7.91538889 C113.041444,8.08927778 112.821444,8.17538889 112.528111,8.17538889 L111.928111,8.17538889 C111.582,8.17538889 111.228667,7.93538889 110.868111,7.45538889 C110.509222,6.97538889 110.194222,6.44261111 109.928667,5.85538889 C109.661444,5.26927778 109.294778,4.73594444 108.828111,4.25538889 C108.361444,3.77538889 107.848667,3.53594444 107.288667,3.53594444 L104.048667,3.53594444 L104.048667,25.4953889 C104.048667,26.1092778 104.328667,26.7026111 104.888111,27.2753889 C105.448111,27.8492778 105.728111,28.2692778 105.728111,28.5359444 L105.728111,28.6553889 C105.728111,29.1092778 105.420889,29.3353889 104.808111,29.3353889 L97.3286667,29.3353889 Z" id="Fill-3"></path>
      <path d="M127.310111,29.7357778 C123.762889,29.7357778 120.902889,28.9824444 118.730111,27.4757778 C116.556222,25.9696667 115.470111,24.3224444 115.470111,22.5352222 C115.470111,21.7891111 115.670111,21.1957778 116.070111,20.7557778 C116.469556,20.3157778 117.069556,20.0952222 117.870111,20.0952222 C118.590111,20.1224444 119.210111,20.3896667 119.729556,20.8957778 C120.250111,21.4024444 120.702889,22.0157778 121.090111,22.7352222 C121.476222,23.4552222 121.896222,24.1691111 122.349556,24.8757778 C122.803444,25.5818889 123.470111,26.1891111 124.350111,26.6952222 C125.230111,27.2018889 126.296222,27.4557778 127.550111,27.4557778 C128.963444,27.4557778 130.090111,27.0891111 130.930111,26.3557778 C131.769556,25.6224444 132.189556,24.6424444 132.189556,23.4157778 C132.189556,22.2696667 131.889556,21.3218889 131.290111,20.5757778 C130.690111,19.8291111 129.915667,19.2618889 128.969556,18.8752222 C128.022889,18.4891111 126.975667,18.1552222 125.830111,17.8752222 C124.682889,17.5952222 123.536222,17.2696667 122.390111,16.8957778 C121.242889,16.5224444 120.190111,16.0491111 119.230111,15.4752222 C118.270111,14.9024444 117.489556,14.0624444 116.889556,12.9557778 C116.290111,11.8496667 115.990111,10.4952222 115.990111,8.89522222 C115.990111,6.44244444 116.942889,4.44244444 118.849556,2.89522222 C120.756222,1.34911111 123.336222,0.575777778 126.589556,0.575777778 C129.790111,0.575777778 132.450111,1.28911111 134.569556,2.71522222 C136.690111,4.14244444 137.736222,5.73577778 137.710111,7.49577778 C137.710111,9.14911111 136.856222,9.97577778 135.149556,9.97577778 C134.350111,9.97577778 133.689556,9.72911111 133.170111,9.23577778 C132.649556,8.74244444 132.222889,8.14966667 131.889556,7.45577778 C131.556222,6.76188889 131.202889,6.06911111 130.830111,5.37522222 C130.456222,4.68244444 129.902889,4.08911111 129.170111,3.59522222 C128.436222,3.10244444 127.536222,2.85522222 126.469556,2.85522222 C125.003444,2.85522222 123.882889,3.24244444 123.109556,4.01522222 C122.336222,4.78966667 121.950111,5.77522222 121.950111,6.97522222 C121.950111,8.12244444 122.250111,9.08244444 122.850111,9.85577778 C123.450111,10.6291111 124.222889,11.2152222 125.169556,11.6157778 C126.116222,12.0157778 127.162889,12.3691111 128.310111,12.6757778 C129.456222,12.9824444 130.602889,13.3296667 131.749556,13.7152222 C132.896222,14.1024444 133.942889,14.5757778 134.890111,15.1357778 C135.836222,15.6957778 136.609556,16.5224444 137.209556,17.6157778 C137.809556,18.7091111 138.109556,20.0291111 138.109556,21.5757778 C138.109556,24.0824444 137.069556,26.0691111 134.989556,27.5352222 C132.910111,29.0024444 130.350111,29.7357778 127.310111,29.7357778" id="Fill-5"></path>
      <path d="M73.3331667,24.6813889 C68.0720556,24.6813889 63.8076111,20.4163889 63.8076111,15.1558333 C63.8076111,9.89472222 68.0720556,5.63027778 73.3331667,5.63027778 C78.5942778,5.63027778 82.8587222,9.89472222 82.8587222,15.1558333 C82.8587222,20.4163889 78.5942778,24.6813889 73.3331667,24.6813889 M73.3331667,0.555277778 C65.2698333,0.555277778 58.7331667,7.0925 58.7331667,15.1558333 C58.7331667,23.2191667 65.2698333,29.7558333 73.3331667,29.7558333 C81.3965,29.7558333 87.9331667,23.2191667 87.9331667,15.1558333 C87.9331667,7.0925 81.3965,0.555277778 73.3331667,0.555277778" id="Fill-7"></path>
      <path d="M40.7405556,24.6813889 C35.4794444,24.6813889 31.215,20.4163889 31.215,15.1558333 C31.215,9.89472222 35.4794444,5.63027778 40.7405556,5.63027778 C46.0016667,5.63027778 50.2661111,9.89472222 50.2661111,15.1558333 C50.2661111,20.4163889 46.0016667,24.6813889 40.7405556,24.6813889 M40.7405556,0.555277778 C32.6772222,0.555277778 26.1405556,7.0925 26.1405556,15.1558333 C26.1405556,23.2191667 32.6772222,29.7558333 40.7405556,29.7558333 C48.8038889,29.7558333 55.3405556,23.2191667 55.3405556,15.1558333 C55.3405556,7.0925 48.8038889,0.555277778 40.7405556,0.555277778" id="Fill-9"></path>
  </g>
</svg>